<?xml version="1.0" encoding="utf-8"?>
<!-- Generator: Adobe Illustrator 27.0.0, SVG Export Plug-In . SVG Version: 6.00 Build 0)  -->
<svg version="1.1" id="Layer_1" xmlns="http://www.w3.org/2000/svg" xmlns:xlink="http://www.w3.org/1999/xlink" x="0px" y="0px"
	 viewBox="0 0 139 50" style="enable-background:new 0 0 139 50;" xml:space="preserve">
<style type="text/css">
	.st0{fill:#191919;}
	.st1{fill:none;stroke:#191919;stroke-width:0.7;stroke-miterlimit:10;}
</style>
<g>
	<path class="st0" d="M66.6,16.4v6.8h7.8v-6.8h2.1v16.2h-2.1V25h-7.8v7.6h-2.1V16.4H66.6z"/>
	<path class="st0" d="M77.6,31.4c0-0.9,0.6-1.5,1.4-1.5s1.4,0.6,1.4,1.5c0,0.9-0.6,1.5-1.4,1.5C78.2,32.9,77.6,32.2,77.6,31.4z"/>
	<path class="st0" d="M86.5,16.4h2.1v10.8c0,4.3-2.1,5.6-4.9,5.6c-0.8,0-1.7-0.2-2.2-0.4l0.3-1.7c0.4,0.2,1.1,0.3,1.8,0.3
		c1.9,0,3-0.8,3-4V16.4z"/>
	<path class="st0" d="M94.1,16.4V26c0,3.6,1.6,5.2,3.8,5.2c2.4,0,3.9-1.6,3.9-5.2v-9.6h2.1v9.4c0,5-2.6,7-6.1,7
		C94.5,32.9,92,31,92,26v-9.5H94.1z"/>
	<path class="st0" d="M107.5,16.4h2.1v14.4h6.9v1.8h-9V16.4z"/>
	<path class="st0" d="M121,16.4v16.2h-2.1V16.4H121z"/>
	<path class="st0" d="M127.2,27.5l-1.7,5.1h-2.2l5.5-16.2h2.5l5.5,16.2h-2.2l-1.7-5.1H127.2z M132.5,25.9l-1.6-4.7
		c-0.4-1.1-0.6-2-0.8-3h0c-0.2,1-0.5,1.9-0.8,2.9l-1.6,4.7H132.5z"/>
</g>
<circle class="st0" cx="18.1" cy="27.3" r="4.6"/>
<circle class="st1" cx="22.8" cy="22.9" r="18.3"/>
<circle class="st1" cx="20.8" cy="29" r="20"/>
<circle class="st1" cx="28.7" cy="20.9" r="20"/>
</svg>
